<svg id="svg" version="1.1" xmlns="http://www.w3.org/2000/svg" xmlns:xlink="http://www.w3.org/1999/xlink" width="400" height="400" viewBox="0, 0, 400,400"><g id="svgg"><path id="path1" d="M265.080 105.779 C 255.403 112.565,249.247 123.327,246.697 137.919 C 246.201 140.754,245.784 214.423,246.116 240.495 C 246.357 259.443,248.297 266.886,255.675 277.175 C 258.265 280.788,265.819 287.500,267.294 287.500 C 267.379 287.500,267.448 246.309,267.448 195.964 C 267.448 145.618,267.349 104.427,267.228 104.427 C 267.108 104.427,266.141 105.036,265.080 105.779 M227.358 124.955 C 217.501 131.551,210.872 142.906,208.556 157.161 L 207.964 160.807 207.867 204.818 C 207.766 250.889,207.759 250.530,208.910 257.031 C 211.161 269.745,218.737 281.567,227.930 286.712 L 229.427 287.550 229.427 205.624 C 229.427 160.565,229.384 123.698,229.332 123.698 C 229.280 123.698,228.392 124.264,227.358 124.955 M188.489 146.109 C 178.369 152.820,171.761 164.885,169.741 180.339 C 169.143 184.918,169.255 250.589,169.868 254.137 C 172.159 267.411,176.281 275.822,183.854 282.676 C 185.980 284.600,189.851 287.240,190.546 287.240 C 190.817 287.240,190.881 273.743,190.884 216.016 C 190.886 176.842,190.795 144.792,190.682 144.792 C 190.568 144.792,189.581 145.385,188.489 146.109 M151.438 164.924 C 141.682 170.805,133.872 183.341,131.938 196.224 C 131.723 197.656,131.422 199.671,131.268 200.701 C 130.887 203.266,130.885 249.843,131.266 252.424 C 133.764 269.327,140.094 280.214,151.330 286.935 L 152.269 287.496 152.445 281.834 C 152.762 271.660,152.583 164.581,152.249 164.599 C 152.086 164.607,151.722 164.754,151.438 164.924 " stroke="none" fill="white" fill-rule="evenodd"></path><path id="path2" d="M267.551 115.104 C 267.551 117.181,267.592 118.031,267.641 116.992 C 267.691 115.954,267.691 114.255,267.641 113.216 C 267.592 112.178,267.551 113.027,267.551 115.104 M267.554 124.870 C 267.554 127.305,267.593 128.336,267.641 127.161 C 267.690 125.987,267.690 123.994,267.642 122.734 C 267.594 121.474,267.555 122.435,267.554 124.870 M229.515 126.042 C 229.515 127.116,229.561 127.555,229.617 127.018 C 229.673 126.481,229.673 125.602,229.617 125.065 C 229.561 124.528,229.515 124.967,229.515 126.042 M229.502 129.818 C 229.504 130.534,229.554 130.796,229.614 130.400 C 229.674 130.004,229.672 129.418,229.610 129.098 C 229.549 128.778,229.500 129.102,229.502 129.818 M267.568 142.318 C 267.568 148.906,267.602 151.564,267.643 148.224 C 267.684 144.884,267.684 139.494,267.643 136.245 C 267.602 132.997,267.568 135.729,267.568 142.318 M229.542 138.542 C 229.542 142.624,229.578 144.294,229.622 142.253 C 229.666 140.212,229.666 136.872,229.622 134.831 C 229.578 132.790,229.542 134.460,229.542 138.542 M245.950 152.344 C 245.950 156.999,245.985 158.903,246.028 156.576 C 246.071 154.248,246.071 150.439,246.028 148.112 C 245.985 145.785,245.950 147.689,245.950 152.344 M229.547 159.375 C 229.547 165.749,229.581 168.356,229.622 165.169 C 229.664 161.982,229.664 156.768,229.622 153.581 C 229.581 150.394,229.547 153.001,229.547 159.375 M181.757 151.758 L 180.859 152.734 181.836 151.837 C 182.373 151.343,182.813 150.904,182.813 150.860 C 182.813 150.662,182.592 150.849,181.757 151.758 M190.951 153.255 C 190.954 153.828,191.007 154.032,191.070 153.708 C 191.132 153.384,191.130 152.915,191.064 152.666 C 190.999 152.417,190.948 152.682,190.951 153.255 M267.508 155.208 C 267.508 155.710,267.562 155.915,267.627 155.664 C 267.693 155.413,267.693 155.003,267.627 154.753 C 267.562 154.502,267.508 154.707,267.508 155.208 M267.519 161.458 C 267.519 162.103,267.570 162.367,267.632 162.044 C 267.694 161.722,267.694 161.195,267.632 160.872 C 267.570 160.550,267.519 160.814,267.519 161.458 M144.783 169.987 L 143.359 171.484 144.857 170.061 C 146.248 168.739,146.473 168.490,146.280 168.490 C 146.239 168.490,145.566 169.163,144.783 169.987 M267.552 175.391 C 267.552 177.539,267.593 178.383,267.642 177.267 C 267.691 176.150,267.690 174.392,267.641 173.360 C 267.592 172.329,267.552 173.242,267.552 175.391 M190.976 175.000 C 190.976 176.217,191.021 176.715,191.076 176.107 C 191.131 175.498,191.131 174.502,191.076 173.893 C 191.021 173.285,190.976 173.783,190.976 175.000 M229.548 191.667 C 229.548 198.613,229.581 201.455,229.622 197.982 C 229.663 194.508,229.663 188.825,229.622 185.352 C 229.581 181.878,229.548 184.720,229.548 191.667 M169.119 193.099 C 169.119 195.820,169.158 196.898,169.205 195.494 C 169.252 194.090,169.251 191.864,169.204 190.546 C 169.157 189.229,169.119 190.378,169.119 193.099 M245.940 192.708 C 245.940 195.215,245.979 196.240,246.027 194.987 C 246.075 193.734,246.075 191.683,246.027 190.430 C 245.979 189.176,245.940 190.202,245.940 192.708 M267.540 191.536 C 267.540 192.826,267.584 193.386,267.638 192.781 C 267.693 192.177,267.693 191.122,267.640 190.438 C 267.586 189.753,267.541 190.247,267.540 191.536 M190.996 197.005 C 190.996 200.013,191.034 201.208,191.080 199.660 C 191.126 198.113,191.126 195.652,191.080 194.192 C 191.033 192.731,190.995 193.997,190.996 197.005 M267.514 194.922 C 267.516 195.495,267.570 195.699,267.632 195.375 C 267.694 195.051,267.692 194.582,267.627 194.333 C 267.562 194.084,267.511 194.349,267.514 194.922 M207.640 198.438 C 207.640 199.512,207.686 199.951,207.742 199.414 C 207.798 198.877,207.798 197.998,207.742 197.461 C 207.686 196.924,207.640 197.363,207.640 198.438 M169.132 212.500 C 169.132 220.449,169.165 223.701,169.206 219.727 C 169.246 215.752,169.246 209.248,169.206 205.273 C 169.165 201.299,169.132 204.551,169.132 212.500 M190.946 211.198 C 190.946 211.699,190.999 211.904,191.065 211.654 C 191.130 211.403,191.130 210.993,191.065 210.742 C 190.999 210.492,190.946 210.697,190.946 211.198 M207.638 212.109 C 207.639 213.112,207.686 213.490,207.742 212.950 C 207.799 212.410,207.798 211.589,207.740 211.127 C 207.683 210.665,207.636 211.107,207.638 212.109 M190.989 216.146 C 190.989 218.223,191.029 219.072,191.079 218.034 C 191.128 216.995,191.128 215.296,191.079 214.258 C 191.029 213.219,190.989 214.069,190.989 216.146 M207.673 228.255 C 207.674 235.990,207.707 239.116,207.747 235.203 C 207.788 231.290,207.788 224.962,207.747 221.140 C 207.707 217.319,207.673 220.521,207.673 228.255 M229.549 228.906 C 229.549 236.855,229.582 240.107,229.622 236.133 C 229.663 232.158,229.663 225.654,229.622 221.680 C 229.582 217.705,229.549 220.957,229.549 228.906 M169.103 231.901 C 169.102 233.190,169.146 233.750,169.201 233.146 C 169.255 232.541,169.256 231.487,169.202 230.802 C 169.148 230.117,169.104 230.612,169.103 231.901 M207.652 245.443 C 207.652 247.161,207.694 247.831,207.745 246.930 C 207.796 246.029,207.796 244.623,207.744 243.805 C 207.693 242.987,207.651 243.724,207.652 245.443 M130.830 246.875 C 130.830 248.665,130.871 249.398,130.922 248.503 C 130.973 247.607,130.973 246.143,130.922 245.247 C 130.871 244.352,130.830 245.085,130.830 246.875 M190.956 248.958 C 190.956 249.603,191.007 249.867,191.069 249.544 C 191.131 249.222,191.131 248.695,191.069 248.372 C 191.007 248.050,190.956 248.314,190.956 248.958 M229.550 266.406 C 229.550 275.501,229.582 279.222,229.622 274.674 C 229.662 270.127,229.662 262.686,229.622 258.138 C 229.582 253.590,229.550 257.311,229.550 266.406 M267.448 278.177 C 267.376 283.434,267.407 287.645,267.516 287.536 C 267.626 287.427,267.684 283.126,267.646 277.978 L 267.578 268.620 267.448 278.177 M144.141 281.771 C 144.700 282.344,145.216 282.813,145.288 282.813 C 145.360 282.813,144.960 282.344,144.401 281.771 C 143.842 281.198,143.325 280.729,143.254 280.729 C 143.182 280.729,143.581 281.198,144.141 281.771 M229.493 284.505 C 229.496 285.078,229.549 285.282,229.611 284.958 C 229.674 284.634,229.671 284.165,229.606 283.916 C 229.541 283.667,229.490 283.932,229.493 284.505 " stroke="none" fill="#77797a" fill-rule="evenodd"></path><path id="path3" d="M260.147 109.831 L 258.724 111.328 260.221 109.905 C 261.045 109.122,261.719 108.448,261.719 108.407 C 261.719 108.214,261.470 108.440,260.147 109.831 M220.687 130.534 L 219.922 131.380 220.768 130.615 C 221.234 130.195,221.615 129.814,221.615 129.769 C 221.615 129.568,221.400 129.745,220.687 130.534 M245.940 166.406 C 245.940 168.913,245.979 169.938,246.027 168.685 C 246.075 167.432,246.075 165.381,246.027 164.128 C 245.979 162.874,245.940 163.900,245.940 166.406 M152.404 166.667 C 152.404 167.168,152.458 167.373,152.523 167.122 C 152.589 166.872,152.589 166.462,152.523 166.211 C 152.458 165.960,152.404 166.165,152.404 166.667 M245.919 174.609 C 245.920 175.612,245.967 175.990,246.023 175.450 C 246.080 174.910,246.079 174.089,246.021 173.627 C 245.964 173.165,245.918 173.607,245.919 174.609 M245.923 181.120 C 245.924 182.266,245.969 182.702,246.024 182.089 C 246.079 181.477,246.079 180.539,246.023 180.006 C 245.967 179.473,245.922 179.974,245.923 181.120 M245.950 206.380 C 245.950 211.107,245.985 213.077,246.028 210.759 C 246.071 208.440,246.071 204.573,246.028 202.165 C 245.985 199.757,245.950 201.654,245.950 206.380 M152.444 204.688 C 152.444 206.478,152.486 207.210,152.537 206.315 C 152.587 205.420,152.587 203.955,152.537 203.060 C 152.486 202.165,152.444 202.897,152.444 204.688 M130.850 219.401 C 130.850 226.992,130.884 230.060,130.924 226.219 C 130.965 222.377,130.965 216.166,130.924 212.417 C 130.884 208.667,130.850 211.810,130.850 219.401 M245.942 223.568 C 245.942 226.289,245.981 227.367,246.028 225.963 C 246.075 224.559,246.074 222.333,246.027 221.015 C 245.980 219.698,245.942 220.846,245.942 223.568 M245.950 237.891 C 245.950 242.760,245.985 244.716,246.028 242.236 C 246.071 239.756,246.071 235.772,246.028 233.382 C 245.985 230.992,245.950 233.021,245.950 237.891 M130.818 235.547 C 130.819 236.693,130.865 237.129,130.920 236.517 C 130.975 235.904,130.974 234.967,130.918 234.433 C 130.863 233.900,130.817 234.401,130.818 235.547 M220.964 281.510 C 221.523 282.083,222.039 282.552,222.111 282.552 C 222.183 282.552,221.783 282.083,221.224 281.510 C 220.665 280.938,220.148 280.469,220.077 280.469 C 220.005 280.469,220.404 280.938,220.964 281.510 M152.431 282.813 C 152.431 283.887,152.477 284.326,152.533 283.789 C 152.590 283.252,152.590 282.373,152.533 281.836 C 152.477 281.299,152.431 281.738,152.431 282.813 M183.073 282.161 C 183.559 282.663,184.015 283.073,184.087 283.073 C 184.158 283.073,183.819 282.663,183.333 282.161 C 182.847 281.660,182.391 281.250,182.320 281.250 C 182.248 281.250,182.587 281.660,183.073 282.161 " stroke="none" fill="#949496" fill-rule="evenodd"></path><path id="path4" d="M229.510 172.396 C 229.510 173.327,229.558 173.708,229.615 173.242 C 229.673 172.777,229.673 172.015,229.615 171.549 C 229.558 171.084,229.510 171.465,229.510 172.396 M229.518 177.083 C 229.518 178.301,229.563 178.799,229.618 178.190 C 229.673 177.581,229.673 176.585,229.618 175.977 C 229.563 175.368,229.518 175.866,229.518 177.083 M245.914 177.734 C 245.915 178.594,245.964 178.914,246.022 178.446 C 246.080 177.978,246.079 177.275,246.019 176.883 C 245.960 176.492,245.913 176.875,245.914 177.734 M245.927 185.938 C 245.927 187.298,245.971 187.855,246.025 187.174 C 246.078 186.494,246.078 185.381,246.025 184.701 C 245.971 184.020,245.927 184.577,245.927 185.938 M229.488 204.948 C 229.488 205.449,229.541 205.654,229.607 205.404 C 229.672 205.153,229.672 204.743,229.607 204.492 C 229.541 204.242,229.488 204.447,229.488 204.948 M229.532 210.547 C 229.533 212.839,229.573 213.741,229.621 212.553 C 229.669 211.364,229.669 209.489,229.620 208.386 C 229.572 207.283,229.532 208.255,229.532 210.547 M245.923 216.797 C 245.924 217.943,245.969 218.379,246.024 217.767 C 246.079 217.154,246.079 216.217,246.023 215.683 C 245.967 215.150,245.922 215.651,245.923 216.797 M130.800 242.708 C 130.800 243.353,130.851 243.617,130.913 243.294 C 130.975 242.972,130.975 242.445,130.913 242.122 C 130.851 241.800,130.800 242.064,130.800 242.708 M229.521 247.656 C 229.521 249.017,229.565 249.574,229.618 248.893 C 229.672 248.213,229.672 247.100,229.618 246.419 C 229.565 245.739,229.521 246.296,229.521 247.656 " stroke="none" fill="#8c8c94" fill-rule="evenodd"></path></g></svg>